<?xml version="1.0" standalone="no"?>
<!DOCTYPE svg PUBLIC "-//W3C//DTD SVG 20010904//EN"
 "http://www.w3.org/TR/2001/REC-SVG-20010904/DTD/svg10.dtd">
<svg version="1.0" xmlns="http://www.w3.org/2000/svg"
 width="564.000000pt" height="564.000000pt" viewBox="0 0 564.000000 564.000000"
 preserveAspectRatio="xMidYMid meet">
<metadata>
Created by potrace 1.11, written by Peter Selinger 2001-2013
</metadata>
<g transform="translate(0.000000,564.000000) scale(0.100000,-0.100000)"
fill="#000000" stroke="none">
<path d="M2619 5625 c-2 -2 -42 -6 -89 -9 -47 -4 -123 -13 -170 -22 -169 -31
-195 -39 -192 -53 5 -23 -109 -378 -179 -557 -69 -178 -203 -421 -290 -529
-131 -160 -190 -223 -294 -311 -202 -173 -414 -294 -657 -379 -106 -37 -342
-101 -407 -109 -74 -10 -126 -18 -141 -21 -8 -2 -27 -4 -41 -4 -20 -1 -29 -8
-35 -28 -4 -16 -6 -32 -5 -37 1 -4 -4 -14 -10 -22 -6 -8 -9 -14 -5 -14 3 0 1
-12 -5 -26 -5 -15 -12 -45 -15 -67 -2 -22 -7 -43 -9 -47 -2 -4 -7 -22 -10 -41
-3 -19 -10 -58 -15 -88 -5 -29 -7 -57 -4 -62 3 -5 2 -9 -3 -9 -4 0 -9 -19 -9
-43 -1 -23 -4 -57 -7 -74 -6 -38 -22 -35 163 -35 129 0 305 9 375 18 22 3 47
6 55 6 16 0 132 15 165 22 11 2 43 7 70 11 28 5 52 9 55 10 3 0 27 4 53 9 68
11 64 10 242 61 171 48 244 73 260 87 5 4 16 8 25 8 37 0 317 158 415 234 81
63 235 215 304 301 31 39 59 72 62 75 10 9 134 203 173 270 21 36 42 72 47 80
28 45 152 302 198 410 170 401 350 776 397 831 8 8 14 19 14 23 0 9 60 88 74
98 16 11 5 15 -59 23 -63 7 -490 17 -496 10z"/>
<path d="M3352 5530 c-12 -16 -22 -32 -22 -35 0 -3 -17 -31 -39 -63 -44 -66
-42 -62 -141 -258 -76 -151 -118 -246 -112 -253 2 -2 0 -7 -5 -10 -5 -3 -20
-35 -33 -71 -13 -36 -29 -68 -34 -72 -6 -4 -8 -8 -4 -8 4 0 0 -17 -9 -37 -8
-21 -20 -49 -26 -63 -6 -14 -11 -27 -12 -30 -1 -3 -9 -22 -18 -44 -9 -21 -17
-40 -17 -43 0 -2 -11 -29 -25 -59 -14 -30 -25 -57 -25 -60 0 -14 -173 -360
-184 -366 -6 -4 -8 -8 -4 -8 4 0 -8 -25 -27 -55 -19 -30 -35 -58 -35 -64 0 -5
-3 -11 -7 -13 -5 -1 -48 -64 -97 -138 -73 -111 -113 -159 -225 -270 -144 -142
-197 -190 -212 -190 -5 0 -9 -4 -9 -10 0 -5 -5 -10 -12 -10 -6 0 -21 -8 -32
-19 -49 -44 -250 -155 -401 -221 -27 -12 -63 -27 -80 -35 -106 -47 -340 -116
-510 -151 -11 -2 -45 -9 -75 -16 -30 -6 -64 -12 -75 -14 -19 -2 -61 -9 -115
-19 -14 -3 -43 -7 -65 -10 -22 -2 -51 -7 -65 -10 -63 -12 -245 -25 -415 -30
-77 -2 -145 -4 -151 -4 -11 -1 -11 -122 0 -226 12 -101 16 -140 21 -165 3 -14
8 -43 11 -65 4 -22 18 -89 33 -150 24 -96 29 -110 47 -107 10 2 22 10 26 17 5
8 36 13 90 14 46 2 103 4 128 6 25 2 90 7 145 10 55 3 114 8 130 10 17 1 64 6
105 9 41 4 86 9 100 11 24 4 49 8 145 20 22 3 51 7 65 9 14 3 41 7 60 10 19 3
60 10 90 16 50 10 69 14 135 25 11 2 61 13 110 24 50 12 101 24 115 27 92 19
517 151 530 164 3 3 12 6 20 8 38 9 271 118 365 172 22 13 49 28 60 34 51 27
235 154 285 195 71 60 193 182 250 250 43 52 120 157 120 165 0 2 17 33 39 67
36 60 133 255 188 379 14 30 31 69 39 85 21 46 105 258 109 275 4 18 157 390
207 505 96 220 251 512 345 649 l33 48 -32 19 c-177 99 -489 220 -663 255 -11
2 -33 6 -50 10 -16 3 -37 7 -46 10 -9 2 -24 -8 -37 -26z"/>
<path d="M1928 5495 c-305 -105 -616 -268 -823 -432 -292 -231 -491 -449 -674
-737 -84 -131 -229 -420 -232 -458 0 -4 -6 -20 -14 -35 -13 -24 -13 -29 0 -36
14 -8 28 -7 110 8 269 48 470 113 671 216 253 129 425 274 634 535 13 16 74
108 138 209 19 31 72 144 72 155 0 6 4 10 9 10 5 0 13 15 16 33 4 17 11 37 15
42 19 25 145 377 166 465 2 8 6 25 10 38 3 12 5 22 3 21 -2 0 -48 -16 -101
-34z"/>
<path d="M4299 5017 c-79 -127 -199 -366 -250 -496 -16 -42 -34 -85 -39 -96
-14 -32 -131 -339 -135 -355 -2 -8 -9 -28 -16 -45 -6 -16 -13 -35 -14 -40 -2
-6 -12 -33 -23 -60 -11 -28 -39 -97 -62 -155 -22 -58 -52 -129 -65 -158 -14
-29 -25 -55 -25 -58 0 -10 -73 -167 -140 -299 -212 -419 -515 -727 -950 -963
-263 -143 -643 -295 -870 -348 -8 -1 -64 -17 -125 -34 -60 -16 -123 -33 -140
-35 -16 -3 -57 -12 -90 -20 -80 -19 -155 -35 -180 -40 -11 -2 -63 -11 -115
-20 -52 -9 -108 -19 -125 -21 -16 -3 -61 -9 -100 -15 -38 -6 -81 -12 -95 -14
-14 -2 -45 -7 -70 -10 -25 -4 -61 -9 -80 -11 -19 -2 -52 -5 -72 -8 -105 -12
-158 -17 -207 -21 -29 -2 -55 -5 -56 -7 -4 -3 85 -183 134 -273 28 -51 94
-153 186 -286 20 -29 21 -29 100 -24 44 3 99 8 122 10 23 3 68 7 100 10 32 3
76 7 98 10 22 2 69 7 105 10 116 11 145 14 145 15 0 1 16 3 35 5 41 3 81 10
205 31 50 9 104 18 120 21 17 2 46 8 65 13 19 5 49 12 65 14 17 3 41 8 55 11
14 3 36 8 50 11 14 3 113 25 220 50 241 56 212 49 295 69 39 9 81 19 94 21 12
3 53 12 90 20 36 9 75 18 86 20 11 2 40 8 65 14 25 5 57 12 72 15 72 13 87 16
163 32 17 3 38 5 47 5 10 0 20 4 23 9 4 5 11 7 16 3 5 -3 33 -1 62 5 28 6 77
13 107 17 30 3 66 8 80 10 14 2 50 6 80 9 30 3 73 7 95 10 122 13 283 19 470
19 238 0 372 -8 670 -38 17 -2 50 -6 75 -10 25 -3 68 -8 95 -11 28 -3 57 -8
65 -10 8 -2 33 -7 55 -10 23 -3 50 -7 60 -9 11 -2 40 -7 65 -11 25 -4 54 -9
65 -11 11 -3 36 -7 55 -10 19 -3 61 -10 94 -15 32 -6 59 -9 61 -7 8 11 116
234 138 289 51 121 125 360 113 364 -6 2 -54 7 -106 10 -123 7 -169 12 -202
19 -16 3 -40 8 -55 11 -16 3 -36 8 -45 11 -9 3 -25 6 -35 8 -67 13 -179 59
-243 100 -208 133 -349 345 -390 587 -9 55 -7 363 3 409 3 14 8 46 11 71 8 56
21 125 26 139 1 3 2 8 2 12 -2 13 117 379 137 423 6 11 24 54 41 95 18 41 45
101 61 133 16 31 26 57 23 57 -4 0 -2 6 3 13 6 6 42 73 81 149 72 138 100 189
123 226 12 19 10 25 -11 54 -60 82 -215 241 -320 329 -36 29 -66 57 -68 62 -2
4 -8 7 -13 7 -5 0 -31 17 -58 38 -27 20 -63 45 -78 54 l-28 16 -76 -121z"/>
<path d="M5118 4113 c-178 -324 -247 -486 -309 -714 -100 -375 -79 -625 66
-798 55 -66 117 -112 205 -153 73 -35 150 -61 150 -52 0 3 8 1 18 -5 9 -5 37
-12 62 -15 25 -4 54 -9 65 -10 60 -10 115 -17 157 -20 l47 -3 7 46 c3 25 8 57
10 71 13 73 18 186 18 370 0 225 -5 297 -30 425 -3 17 -6 37 -6 45 0 18 -22
118 -50 225 -11 44 -22 87 -23 95 -2 8 -4 15 -5 15 -1 0 -3 7 -5 15 -5 23 -51
150 -85 236 -54 134 -183 384 -199 384 -3 0 -45 -71 -93 -157z"/>
<path d="M3887 1424 c-1 -1 -72 -5 -157 -8 -152 -7 -184 -9 -285 -20 -27 -4
-75 -9 -105 -12 -30 -3 -71 -9 -90 -13 -19 -4 -47 -7 -62 -7 -16 1 -28 -2 -28
-7 0 -4 -4 -6 -8 -3 -4 2 -37 -2 -74 -9 -36 -8 -81 -16 -100 -18 -18 -2 -39
-7 -46 -11 -7 -4 -12 -5 -12 -3 0 2 -26 -2 -57 -10 -32 -7 -74 -16 -93 -19
-19 -2 -48 -9 -65 -14 -24 -7 -142 -35 -235 -55 -8 -2 -44 -11 -80 -20 -36 -9
-74 -19 -85 -22 -11 -2 -24 -5 -30 -7 -5 -2 -28 -7 -50 -11 -55 -12 -55 -12
-57 -15 -2 -1 -12 -3 -23 -5 -19 -4 -133 -31 -165 -39 -39 -11 -292 -70 -350
-82 -36 -7 -76 -16 -90 -19 -14 -2 -50 -9 -80 -15 -30 -5 -68 -12 -85 -15 -49
-9 -120 -19 -210 -30 -27 -3 -66 -8 -85 -10 -19 -3 -67 -7 -107 -11 -39 -3
-80 -7 -90 -9 -10 -2 -36 -4 -58 -5 l-40 -1 101 -97 c55 -53 111 -106 125
-117 153 -127 326 -245 361 -246 13 0 43 2 68 5 59 7 147 17 185 21 116 13
262 38 410 70 48 11 71 16 93 20 13 2 32 7 42 10 18 6 38 10 87 21 26 5 220
50 278 64 109 26 213 50 240 54 17 3 41 8 55 11 40 9 122 25 160 30 19 3 42 7
50 9 240 48 690 62 1010 31 25 -3 77 -7 115 -10 39 -4 79 -8 90 -9 11 -2 47
-6 80 -11 33 -4 69 -9 80 -11 11 -2 38 -6 60 -9 55 -7 114 -15 151 -20 29 -5
41 5 146 108 119 116 233 245 309 347 68 92 98 140 90 144 -5 3 -35 8 -67 11
-33 3 -70 8 -84 10 -42 6 -156 22 -225 31 -132 17 -338 36 -545 49 -105 7
-358 13 -363 9z"/>
<path d="M3667 674 c-1 -1 -58 -4 -127 -8 -119 -6 -146 -8 -265 -22 -27 -3
-63 -7 -80 -9 -31 -4 -251 -40 -295 -49 -131 -27 -144 -30 -239 -52 -36 -9
-77 -18 -91 -20 -14 -3 -33 -7 -42 -10 -16 -5 -30 -8 -98 -24 -19 -4 -96 -22
-170 -40 -74 -17 -143 -33 -153 -36 -10 -2 -26 -5 -35 -8 -9 -3 -30 -8 -47
-11 -16 -3 -34 -7 -40 -9 -21 -6 -121 -25 -150 -30 -27 -3 -93 -15 -185 -32
-19 -3 -41 -7 -47 -7 -21 -1 -15 -5 35 -27 389 -176 780 -261 1187 -259 72 0
150 2 175 3 85 7 195 18 200 21 3 1 28 6 55 9 28 4 64 10 80 13 17 3 37 7 45
8 8 1 22 5 30 8 8 4 27 9 43 12 64 12 85 17 132 32 101 31 231 76 257 90 15 7
29 13 30 12 16 -5 261 117 388 195 124 75 250 163 250 175 0 4 -16 8 -37 9
-20 2 -40 5 -44 8 -4 2 -34 7 -66 10 -32 3 -71 7 -87 10 -43 7 -190 20 -331
30 -91 6 -274 11 -278 8z"/>
</g>
</svg>
